# xmcd
#
# Track frame offsets: 
#        150
#        12271
#        29213
#        39814
#        58264
#        77303
#        91272
#        114509
#        131209
#        148141
#        162933
#
# Disc length: 2344 seconds
#
# Revision: 1
# Processed by: cddbd v1.5.1PL0 Copyright (c) Steve Scherf et al.
# Submitted via: ExactAudioCopy v0.90b4
#
DISCID=8f09260b
DTITLE=Stuff Smith - Cat on a Hot Fiddle
DYEAR=1959
DGENRE=Jazz
TTITLE0=Undecided
TTITLE1=The Man I Love
TTITLE2=Oh, Lady, Be Good!
TTITLE3=Nice Work If You Can Get It
TTITLE4=Take the ''A'' Train
TTITLE5=Blue Violin
TTITLE6=They Can't Take That Away From Me
TTITLE7=Somebody Loves Me
TTITLE8='S Wonderful
TTITLE9=Nice and Warm
TTITLE10=Strike Up the Band
EXTD=
EXTT0=
EXTT1=
EXTT2=
EXTT3=
EXTT4=
EXTT5=
EXTT6=
EXTT7=
EXTT8=
EXTT9=
EXTT10=
PLAYORDER=
